<?xml version="1.0" encoding="UTF-8"?> <svg xmlns="http://www.w3.org/2000/svg" xmlns:xlink="http://www.w3.org/1999/xlink" version="1.1" id="Layer_1" x="0px" y="0px" viewBox="0 0 267.5 44.5" style="enable-background:new 0 0 267.5 44.5;" xml:space="preserve"> <style type="text/css"> .st0{fill:#2C5234;} .st1{fill:#78BE21;} </style> <g> <path class="st0" d="M90.9,20.6h2l2.3,6.4c0.2,0.4,0.3,0.8,0.4,1.1c0.1,0.3,0.2,0.6,0.3,0.9c0.2-0.7,0.4-1.3,0.6-2 c0-0.1,0-0.1,0.1-0.2l2.5-6.8l2.6,6.9c0.1,0.3,0.2,0.7,0.3,1c0.1,0.3,0.2,0.7,0.3,1c0.1-0.3,0.1-0.5,0.2-0.9 c0.1-0.3,0.2-0.7,0.4-1.1l2.3-6.4h2l-4.7,13.2l-2.8-7.2c-0.1-0.3-0.2-0.6-0.3-0.9C99.1,25.3,99,25,99,24.8c-0.1,0.3-0.2,0.7-0.3,1 c-0.1,0.3-0.2,0.6-0.3,0.9l-2.7,7.2L90.9,20.6z"></path> <path class="st0" d="M113.9,29.4h-6.3c0,0.8,0.3,1.4,0.7,1.8c0.4,0.4,0.9,0.6,1.6,0.6c0.6,0,1.1-0.1,1.5-0.4c0.4-0.3,0.7-0.7,1-1.2 l1.5,0.9c-0.4,0.8-1,1.4-1.7,1.8c-0.7,0.4-1.4,0.6-2.3,0.6c-1.3,0-2.3-0.4-3-1.2c-0.8-0.8-1.1-1.9-1.1-3.2c0-1.3,0.4-2.3,1.2-3.2 c0.8-0.8,1.8-1.2,3-1.2c1.3,0,2.3,0.4,3,1.1c0.7,0.8,1.1,1.8,1.1,3.2V29.4z M112,28.2c-0.1-0.6-0.3-1-0.7-1.3 c-0.4-0.3-0.9-0.5-1.5-0.5c-0.6,0-1.1,0.1-1.4,0.5c-0.4,0.3-0.6,0.8-0.8,1.4H112z"></path> <path class="st0" d="M114.3,31.8l1.5-0.8c0.1,0.4,0.3,0.7,0.6,0.9c0.3,0.2,0.7,0.3,1.2,0.3c0.4,0,0.7-0.1,1-0.3 c0.2-0.2,0.3-0.5,0.3-0.8c0-0.4-0.4-0.8-1.2-1.1c-0.3-0.1-0.5-0.2-0.6-0.3c-0.8-0.4-1.4-0.7-1.8-1.1c-0.3-0.4-0.5-0.8-0.5-1.4 c0-0.7,0.3-1.3,0.8-1.8c0.6-0.5,1.3-0.7,2.2-0.7c0.6,0,1.1,0.1,1.6,0.4c0.4,0.2,0.8,0.6,1,1L119,27c-0.1-0.3-0.3-0.5-0.5-0.6 c-0.2-0.2-0.5-0.2-0.8-0.2c-0.3,0-0.6,0.1-0.8,0.3c-0.2,0.2-0.3,0.4-0.3,0.7c0,0.4,0.5,0.8,1.4,1.2c0.3,0.1,0.5,0.2,0.7,0.3 c0.7,0.3,1.2,0.6,1.6,1c0.3,0.4,0.5,0.8,0.5,1.4c0,0.8-0.3,1.5-0.9,1.9c-0.6,0.5-1.4,0.7-2.4,0.7c-0.8,0-1.4-0.1-1.9-0.5 C114.9,32.9,114.5,32.4,114.3,31.8"></path> <polygon class="st0" points="122.3,33.3 122.3,26.7 120.9,26.7 120.9,25.1 122.3,25.1 122.3,22 124.1,22 124.1,25.1 125.5,25.1 125.5,26.7 124.1,26.7 124.1,33.3 "></polygon> <path class="st0" d="M133.9,29.4h-6.3c0,0.8,0.3,1.4,0.7,1.8c0.4,0.4,0.9,0.6,1.6,0.6c0.6,0,1.1-0.1,1.5-0.4c0.4-0.3,0.7-0.7,1-1.2 l1.5,0.9c-0.4,0.8-1,1.4-1.7,1.8c-0.7,0.4-1.4,0.6-2.3,0.6c-1.3,0-2.3-0.4-3-1.2c-0.8-0.8-1.1-1.9-1.1-3.2c0-1.3,0.4-2.3,1.2-3.2 c0.8-0.8,1.8-1.2,3-1.2c1.3,0,2.3,0.4,3,1.1c0.7,0.8,1.1,1.8,1.1,3.2V29.4z M132,28.2c-0.1-0.6-0.3-1-0.7-1.3 c-0.4-0.3-0.9-0.5-1.5-0.5c-0.6,0-1.1,0.1-1.4,0.5c-0.4,0.3-0.6,0.8-0.8,1.4H132z"></path> <path class="st0" d="M136.8,26.4c0.2-0.5,0.5-0.9,0.8-1.2c0.3-0.3,0.7-0.4,1.2-0.4c0.3,0,0.5,0,0.8,0.1c0.2,0.1,0.5,0.2,0.7,0.3 l-0.7,1.6c-0.2-0.1-0.3-0.2-0.5-0.3c-0.2-0.1-0.4-0.1-0.6-0.1c-0.6,0-1,0.2-1.3,0.7c-0.3,0.5-0.4,1.3-0.4,2.5v3.6H135v-8.2h1.8 V26.4z"></path> <path class="st0" d="M141,33.3v-8.2h1.7v1.3c0.4-0.6,0.8-1,1.3-1.2c0.5-0.3,1.1-0.4,1.8-0.4c0.6,0,1.1,0.1,1.5,0.3 c0.4,0.2,0.7,0.5,1,0.9c0.1,0.2,0.2,0.5,0.3,0.8c0.1,0.3,0.1,0.8,0.1,1.6v5h-1.8v-4.2c0-1.1-0.1-1.8-0.4-2.1 c-0.3-0.4-0.7-0.5-1.3-0.5c-0.4,0-0.8,0.1-1.1,0.2c-0.3,0.2-0.6,0.4-0.8,0.7c-0.1,0.2-0.2,0.4-0.3,0.8c-0.1,0.3-0.1,0.8-0.1,1.5 v3.7H141z"></path> <polygon class="st0" points="154.6,33.3 154.6,20.6 161.5,20.6 161.5,22.4 156.6,22.4 156.6,25.5 161.5,25.5 161.5,27.3 156.6,27.3 156.6,33.3 "></polygon> <path class="st0" d="M162.1,29.2c0-0.6,0.1-1.2,0.3-1.7c0.2-0.5,0.5-1,0.9-1.4c0.4-0.4,0.9-0.7,1.4-0.9c0.5-0.2,1.1-0.3,1.7-0.3 c0.6,0,1.2,0.1,1.7,0.3c0.5,0.2,1,0.5,1.4,1c0.4,0.4,0.7,0.9,1,1.4c0.2,0.5,0.3,1.1,0.3,1.7c0,0.6-0.1,1.2-0.3,1.7 c-0.2,0.5-0.5,1-0.9,1.4c-0.4,0.4-0.9,0.8-1.4,1c-0.5,0.2-1.1,0.3-1.7,0.3c-0.6,0-1.1-0.1-1.7-0.3c-0.5-0.2-1-0.5-1.4-1 c-0.4-0.4-0.7-0.9-1-1.4C162.2,30.3,162.1,29.8,162.1,29.2 M168.9,29.2c0-0.8-0.2-1.4-0.7-1.9c-0.5-0.5-1.1-0.8-1.7-0.8 c-0.7,0-1.3,0.3-1.7,0.8c-0.5,0.5-0.7,1.2-0.7,1.9c0,0.8,0.2,1.4,0.7,1.9c0.5,0.5,1.1,0.8,1.7,0.8c0.7,0,1.3-0.3,1.7-0.8 C168.7,30.6,168.9,30,168.9,29.2"></path> <path class="st0" d="M173.6,26.4c0.2-0.5,0.5-0.9,0.8-1.2c0.3-0.3,0.7-0.4,1.2-0.4c0.3,0,0.5,0,0.8,0.1c0.2,0.1,0.5,0.2,0.7,0.3 l-0.6,1.6c-0.2-0.1-0.3-0.2-0.5-0.3c-0.2-0.1-0.4-0.1-0.6-0.1c-0.6,0-1,0.2-1.3,0.7c-0.3,0.5-0.4,1.3-0.4,2.5v3.6h-1.8v-8.2h1.8 V26.4z"></path> <path class="st0" d="M185,29.4h-6.3c0,0.8,0.3,1.4,0.7,1.8c0.4,0.4,0.9,0.6,1.6,0.6c0.6,0,1.1-0.1,1.5-0.4c0.4-0.3,0.7-0.7,1-1.2 l1.5,0.9c-0.4,0.8-1,1.4-1.7,1.8c-0.7,0.4-1.4,0.6-2.3,0.6c-1.3,0-2.3-0.4-3-1.2c-0.8-0.8-1.1-1.9-1.1-3.2c0-1.3,0.4-2.3,1.2-3.2 c0.8-0.8,1.8-1.2,3-1.2c1.3,0,2.3,0.4,3,1.1c0.7,0.8,1.1,1.8,1.1,3.2V29.4z M183.2,28.2c-0.1-0.6-0.3-1-0.7-1.3 c-0.4-0.3-0.9-0.5-1.5-0.5c-0.6,0-1.1,0.1-1.4,0.5c-0.4,0.3-0.6,0.8-0.8,1.4H183.2z"></path> <path class="st0" d="M185.6,31.8l1.5-0.8c0.1,0.4,0.3,0.7,0.6,0.9c0.3,0.2,0.7,0.3,1.2,0.3c0.4,0,0.7-0.1,1-0.3 c0.2-0.2,0.3-0.5,0.3-0.8c0-0.4-0.4-0.8-1.2-1.1c-0.3-0.1-0.5-0.2-0.6-0.3c-0.8-0.4-1.4-0.7-1.8-1.1c-0.3-0.4-0.5-0.8-0.5-1.4 c0-0.7,0.3-1.3,0.8-1.8c0.6-0.5,1.3-0.7,2.2-0.7c0.6,0,1.1,0.1,1.6,0.4c0.4,0.2,0.8,0.6,1,1l-1.3,0.9c-0.1-0.3-0.3-0.5-0.5-0.6 c-0.2-0.2-0.5-0.2-0.8-0.2c-0.3,0-0.6,0.1-0.8,0.3c-0.2,0.2-0.3,0.4-0.3,0.7c0,0.4,0.5,0.8,1.4,1.2c0.3,0.1,0.5,0.2,0.7,0.3 c0.7,0.3,1.2,0.6,1.6,1c0.3,0.4,0.5,0.8,0.5,1.4c0,0.8-0.3,1.5-0.9,1.9c-0.6,0.5-1.4,0.7-2.4,0.7c-0.8,0-1.4-0.1-1.9-0.5 C186.3,32.9,185.9,32.4,185.6,31.8"></path> <polygon class="st0" points="193.8,33.3 193.8,26.7 192.4,26.7 192.4,25.1 193.8,25.1 193.8,22 195.6,22 195.6,25.1 197,25.1 197,26.7 195.6,26.7 195.6,33.3 "></polygon> <path class="st0" d="M203.6,27.6v5.7h-1.9V20.6h3c0.9,0,1.5,0.1,2,0.2c0.4,0.1,0.8,0.3,1.1,0.5c0.4,0.3,0.7,0.7,0.9,1.2 c0.2,0.5,0.3,1,0.3,1.6c0,0.6-0.1,1.2-0.3,1.7c-0.2,0.5-0.5,0.9-0.9,1.2c-0.3,0.2-0.7,0.4-1.1,0.5c-0.4,0.1-1.1,0.1-2,0.1h-0.4 H203.6z M203.7,25.9h0.5c1.1,0,1.8-0.1,2.2-0.4c0.4-0.2,0.6-0.7,0.6-1.3c0-0.7-0.2-1.2-0.6-1.4c-0.4-0.3-1.1-0.4-2.2-0.4h-0.5V25.9 z"></path> <path class="st0" d="M211.6,26.4c0.2-0.5,0.5-0.9,0.8-1.2c0.3-0.3,0.7-0.4,1.2-0.4c0.3,0,0.5,0,0.8,0.1c0.2,0.1,0.5,0.2,0.7,0.3 l-0.7,1.6c-0.2-0.1-0.3-0.2-0.5-0.3c-0.2-0.1-0.4-0.1-0.6-0.1c-0.6,0-1,0.2-1.3,0.7c-0.3,0.5-0.4,1.3-0.4,2.5v3.6h-1.8v-8.2h1.8 V26.4z"></path> <path class="st0" d="M214.6,29.2c0-0.6,0.1-1.2,0.3-1.7c0.2-0.5,0.5-1,0.9-1.4c0.4-0.4,0.9-0.7,1.4-0.9c0.5-0.2,1.1-0.3,1.7-0.3 c0.6,0,1.2,0.1,1.7,0.3c0.5,0.2,1,0.5,1.4,1c0.4,0.4,0.7,0.9,1,1.4c0.2,0.5,0.3,1.1,0.3,1.7c0,0.6-0.1,1.2-0.3,1.7 c-0.2,0.5-0.5,1-0.9,1.4c-0.4,0.4-0.9,0.8-1.4,1c-0.5,0.2-1.1,0.3-1.7,0.3c-0.6,0-1.1-0.1-1.7-0.3c-0.5-0.2-1-0.5-1.4-1 c-0.4-0.4-0.7-0.9-0.9-1.4C214.7,30.3,214.6,29.8,214.6,29.2 M221.4,29.2c0-0.8-0.2-1.4-0.7-1.9c-0.5-0.5-1.1-0.8-1.7-0.8 c-0.7,0-1.3,0.3-1.7,0.8c-0.5,0.5-0.7,1.2-0.7,1.9c0,0.8,0.2,1.4,0.7,1.9c0.5,0.5,1.1,0.8,1.7,0.8c0.7,0,1.3-0.3,1.7-0.8 C221.1,30.6,221.4,30,221.4,29.2"></path> <path class="st0" d="M230.5,20.5h1.8v12.7h-1.8v-1.1c-0.3,0.5-0.7,0.8-1.1,1.1c-0.4,0.2-0.9,0.3-1.5,0.3c-1.1,0-2-0.4-2.6-1.2 c-0.6-0.8-1-1.9-1-3.3c0-1.3,0.3-2.4,1-3.2c0.7-0.8,1.5-1.2,2.6-1.2c0.6,0,1.2,0.1,1.7,0.4c0.5,0.3,0.8,0.7,1,1.2V20.5z M230.5,29.1c0-0.8-0.2-1.5-0.6-2c-0.4-0.5-0.9-0.7-1.6-0.7c-0.7,0-1.2,0.2-1.6,0.7c-0.4,0.5-0.6,1.2-0.6,2c0,0.9,0.2,1.5,0.6,2 c0.4,0.5,0.9,0.7,1.6,0.7c0.7,0,1.2-0.3,1.6-0.8C230.3,30.7,230.5,30,230.5,29.1"></path> <path class="st0" d="M235.6,25.1v4.6c0,0.8,0.2,1.4,0.5,1.7c0.3,0.3,0.8,0.5,1.5,0.5c0.7,0,1.2-0.2,1.5-0.5 c0.3-0.3,0.5-0.9,0.5-1.7v-4.6h1.8v4.1c0,1.6-0.3,2.7-0.9,3.4c-0.6,0.7-1.6,1.1-2.9,1.1c-1.3,0-2.3-0.4-2.9-1.1 c-0.6-0.7-0.9-1.8-0.9-3.4v-4.1H235.6z"></path> <path class="st0" d="M248.8,27.4c-0.3-0.3-0.6-0.6-1-0.7c-0.4-0.2-0.8-0.3-1.2-0.3c-0.7,0-1.3,0.2-1.8,0.7c-0.4,0.5-0.7,1.2-0.7,2 c0,0.9,0.2,1.5,0.7,2c0.4,0.5,1.1,0.7,1.9,0.7c0.4,0,0.8-0.1,1.2-0.3c0.3-0.2,0.6-0.4,0.9-0.8V33c-0.3,0.2-0.7,0.3-1.1,0.4 c-0.4,0.1-0.8,0.1-1.2,0.1c-1.2,0-2.2-0.4-3-1.2c-0.8-0.8-1.2-1.9-1.2-3.2c0-1.3,0.4-2.4,1.2-3.2c0.8-0.8,1.9-1.2,3.2-1.2 c0.4,0,0.8,0,1.1,0.1c0.3,0.1,0.7,0.2,1,0.4V27.4z"></path> <polygon class="st0" points="251,33.3 251,26.7 249.6,26.7 249.6,25.1 251,25.1 251,22 252.8,22 252.8,25.1 254.2,25.1 254.2,26.7 252.8,26.7 252.8,33.3 "></polygon> <path class="st0" d="M254.5,31.8l1.5-0.8c0.1,0.4,0.3,0.7,0.6,0.9c0.3,0.2,0.7,0.3,1.2,0.3c0.4,0,0.7-0.1,1-0.3 c0.2-0.2,0.3-0.5,0.3-0.8c0-0.4-0.4-0.8-1.2-1.1c-0.3-0.1-0.5-0.2-0.6-0.3c-0.8-0.4-1.4-0.7-1.8-1.1c-0.3-0.4-0.5-0.8-0.5-1.4 c0-0.7,0.3-1.3,0.8-1.8c0.6-0.5,1.3-0.7,2.2-0.7c0.6,0,1.1,0.1,1.6,0.4c0.4,0.2,0.8,0.6,1,1l-1.3,0.9c-0.1-0.3-0.3-0.5-0.5-0.6 c-0.2-0.2-0.5-0.2-0.8-0.2c-0.3,0-0.6,0.1-0.8,0.3c-0.2,0.2-0.3,0.4-0.3,0.7c0,0.4,0.5,0.8,1.4,1.2c0.3,0.1,0.5,0.2,0.7,0.3 c0.7,0.3,1.2,0.6,1.6,1c0.3,0.4,0.5,0.8,0.5,1.4c0,0.8-0.3,1.5-0.9,1.9c-0.6,0.5-1.4,0.7-2.4,0.7c-0.8,0-1.4-0.1-1.9-0.5 C255.2,32.9,254.8,32.4,254.5,31.8"></path> <path class="st1" d="M68.4,7.5H34l-4,7.2L21.6,0l-8.3,14.7L8.4,6l-3.1,5.5l8,14.2L21.6,11l8.3,14.7l7-12.4l31.8,0 c1.6,0,3,0.4,4.3,1.1c0,0,0.1,0,0.1,0L68.4,7.5z"></path> <path class="st0" d="M68.8,14.6H56v29.9h7.5v-12l5.2,0c5-0.2,8.6-4,8.6-9C77.3,18.4,73.7,14.6,68.8,14.6 M67.7,26.3h-4.1v-5.7h4.2 c1.6,0,2.4,1.5,2.4,2.9C70.2,25,69.2,26.1,67.7,26.3"></path> <polygon class="st0" points="54.6,20.6 54.6,14.6 37.9,14.6 29.9,28.7 21.6,14 13.3,28.7 4.5,12.9 0,20.9 13.3,44.5 21.6,29.8 29.9,44.5 37.7,30.8 37.7,44.5 45.2,44.5 45.2,32.5 54.6,32.5 54.6,26.3 45.2,26.3 45.2,20.6 "></polygon> <path class="st0" d="M264.7,22c0.5,0,0.9,0.1,1.4,0.4c0.4,0.2,0.8,0.6,1,1s0.4,0.9,0.4,1.4c0,0.5-0.1,1-0.4,1.4 c-0.2,0.4-0.6,0.8-1,1c-0.4,0.2-0.9,0.4-1.4,0.4c-0.5,0-1-0.1-1.4-0.4c-0.4-0.2-0.8-0.6-1-1c-0.2-0.4-0.4-0.9-0.4-1.4 c0-0.5,0.1-1,0.4-1.4s0.6-0.8,1-1C263.7,22.1,264.2,22,264.7,22z M264.7,22.5c-0.4,0-0.8,0.1-1.1,0.3c-0.4,0.2-0.6,0.5-0.8,0.8 c-0.2,0.4-0.3,0.7-0.3,1.1c0,0.4,0.1,0.8,0.3,1.1c0.2,0.4,0.5,0.6,0.8,0.8c0.4,0.2,0.7,0.3,1.1,0.3c0.4,0,0.8-0.1,1.1-0.3 c0.4-0.2,0.6-0.5,0.8-0.8c0.2-0.4,0.3-0.7,0.3-1.1c0-0.4-0.1-0.8-0.3-1.1c-0.2-0.4-0.5-0.6-0.8-0.8S265.1,22.5,264.7,22.5z M263.4,26.3v-3h0.6c0.6,0,0.9,0,1,0c0.2,0,0.4,0.1,0.5,0.1c0.1,0.1,0.2,0.2,0.3,0.3c0.1,0.1,0.1,0.3,0.1,0.4 c0,0.2-0.1,0.4-0.2,0.6c-0.1,0.2-0.3,0.2-0.6,0.3c0.1,0,0.2,0.1,0.2,0.1c0,0,0.1,0.1,0.2,0.2c0,0,0.1,0.2,0.2,0.4l0.4,0.6h-0.7 l-0.2-0.5c-0.2-0.3-0.3-0.5-0.4-0.6c-0.1-0.1-0.2-0.1-0.4-0.1H264v1.2H263.4z M264,24.6h0.2c0.3,0,0.6,0,0.7,0 c0.1,0,0.2-0.1,0.2-0.1c0-0.1,0.1-0.1,0.1-0.2c0-0.1,0-0.2-0.1-0.2c0-0.1-0.1-0.1-0.2-0.1c-0.1,0-0.3,0-0.6,0H264V24.6z"></path> </g> </svg> 